<svg xmlns="http://www.w3.org/2000/svg" version="1.1" xmlns:xlink="http://www.w3.org/1999/xlink" xmlns:svgjs="http://svgjs.dev/svgjs" width="1000" height="623" viewBox="0 0 1000 623"><g transform="matrix(1,0,0,1,-0.6060606060606233,0.2522267206477409)"><svg viewBox="0 0 396 247" data-background-color="#161616" preserveAspectRatio="xMidYMid meet" height="623" width="1000" xmlns="http://www.w3.org/2000/svg" xmlns:xlink="http://www.w3.org/1999/xlink"><g id="tight-bounds" transform="matrix(1,0,0,1,0.2400000000000091,-0.09999999999999432)"><svg viewBox="0 0 395.52 247.2" height="247.2" width="395.52"><g><svg></svg></g><g><svg viewBox="0 0 395.52 247.2" height="247.2" width="395.52"><g transform="matrix(1,0,0,1,75.54432,55.71850933548778)"><svg viewBox="0 0 244.43135999999998 135.76298132902443" height="135.76298132902443" width="244.43135999999998"><g><svg viewBox="0 0 244.43135999999998 135.76298132902443" height="135.76298132902443" width="244.43135999999998"><g><svg viewBox="0 0 275.0505382918607 152.7696" height="135.76298132902443" width="244.43135999999998"><g><svg viewBox="0 0 147.70414227581009 152.7696" height="152.7696" width="147.70414227581009"><g><svg viewBox="0 0 147.70414227581009 152.7696" height="152.7696" width="147.70414227581009"><g><svg viewBox="0 0 147.70414227581009 152.7696" height="152.7696" width="147.70414227581009"><g transform="matrix(1,0,0,1,0,0)"><svg width="147.70414227581009" viewBox="2.8600001335144043 -32.400001525878906 31.31999969482422 32.400001525878906" height="152.7696" data-palette-color="#ffffff"><path d="M27.69 0L15.36 0 15.36-6.47 23.36-6.47 23.36-25.93 15.36-25.93 15.36-32.4 27.69-32.4 34.18-25.93 34.18-6.47 27.69 0ZM2.86 0L2.86-32.4 13.65-32.4 13.65 0 2.86 0Z" opacity="1" transform="matrix(1,0,0,1,0,0)" fill="#ffffff" class="undefined-text-0" data-fill-palette-color="primary" id="text-0"></path></svg></g></svg></g></svg></g></svg></g><g transform="matrix(1,0,0,1,183.7693783654101,4.679471429799477)"><svg viewBox="0 0 91.28115992645063 143.41065714040104" height="143.41065714040104" width="91.28115992645063"><g><svg xmlns="http://www.w3.org/2000/svg" xmlns:xlink="http://www.w3.org/1999/xlink" version="1.1" x="0" y="0" viewBox="19.49799919128418 1.375 61.50199890136719 96.625" enable-background="new 0 0 100 100" xml:space="preserve" height="143.41065714040104" width="91.28115992645063" class="icon-icon-0" data-fill-palette-color="accent" id="icon-0"><path display="none" d="M62.653 97.752H37.887l-6.651-12.998V61.933L19.721 50.247V25.799l4.909-9.368H13.742V0.103l15.239 7.663v5.382l42.778-0.095V7.663L87 0v16.33H76.108l4.945 9.471v24.458L69.268 61.944v22.807L62.653 97.752zM39.894 94.473h20.747l4.312-8.475H35.558L39.894 94.473zM34.517 82.718h31.47V68.172l-2.67 5.307-2.929-1.475 4.578-9.103h-8.237l-6.344 6.44-6.307-6.44h-8.49l4.756 9.079-2.905 1.521-2.921-5.575V82.718zM34.517 59.623h10.94l4.936 5.038 4.963-5.038h10.631V24.562h10.722l-4.299-8.231-44.076 0.1-4.256 8.122 10.439-0.031V59.623zM69.268 39.394v17.934l8.507-8.437v-9.497H69.268zM23.002 48.902l8.234 8.356v-17.87l-8.234-0.023V48.902zM69.268 36.113h8.507v-8.271h-8.507V36.113zM23.002 36.085l8.234 0.024v-8.295l-8.234 0.025V36.085zM17.022 13.152h8.679V9.787l-8.679-4.363V13.152zM75.041 13.049h8.679V5.321l-8.679 4.364V13.049z" fill="#ffffff" data-fill-palette-color="accent"></path><path display="none" d="M67.344 98.334H55.887v-3.312h3.326l-5.066-15.948 3.862-11.865-8.113 8.208-7.747-7.655 3.75 11.317-5.283 15.943h3.538v3.312H32.489v-3.312h4.637l5.283-15.943-5.45-16.445-0.121-0.118H36.63V62.31l-5.797-5.729V43.218l5.797-6.104V13.868L50.339 0l12.794 13.902v23.155L69 42.991v13.095l-5.81 5.907-5.564 17.092 5.063 15.937h4.654V98.334zM39.943 60.925l9.924 9.808 10.08-10.199-0.079-6.75-9.53 10.061L39.943 53.627V60.925zM39.943 48.982l10.311 10.134 9.567-10.1V27.729H39.943V48.982zM34.146 55.196l2.485 2.455V41.924l-2.485 2.616V55.196zM63.134 49.667l0.088 7.554 2.466-2.495V44.353l-2.554-2.583V49.667zM45.486 24.416h8.691l-4.302-2.447L45.486 24.416zM56.146 21.724l3.675 2.089v-2.089H56.146zM39.943 21.724v1.99l3.568-1.99H39.943zM49.89 18.167l4.34 2.468V9.12l-3.978-4.32L45.81 9.294v11.147L49.89 18.167zM57.543 18.411h2.278v-3.217l-2.278-2.474V18.411zM39.943 18.411h2.554v-5.766l-2.554 2.584V18.411z" fill="#ffffff" data-fill-palette-color="accent"></path><path d="M79.359 98H56.263v-3.279h23.097V98zM44.646 98H21.138v-3.279h23.508V98zM68.28 86.246h-35.85L19.498 73.683V49.139L31.45 37.324l-0.205-22.943L43.955 1.375h13.006l12.496 13.014-0.206 22.944L81 49.147v24.526L68.28 86.246zM33.762 82.967h33.169l4.928-4.87v-33.49l-4.693-4.72-16.814 5.725-16.824-5.728-4.788 4.731v33.473L33.762 82.967zM22.778 72.297l2.682 2.604V47.857l-2.682 2.651V72.297zM75.139 47.906v26.949l2.581-2.549V50.5L75.139 47.906zM36.784 37.527l13.567 4.619 13.603-4.632-13.441-9.087L36.784 37.527zM34.65 28.298l0.059 6.669 10.061-6.669H34.65zM56.179 28.298l9.814 6.636 0.059-6.636H56.179zM36.787 13.403h9.498v13.89l4.246-2.813 4.092 2.766V13.403h9.34l-8.4-8.748H45.335L36.787 13.403zM57.902 25.018h8.179l0.075-8.335h-8.254V25.018zM34.621 25.018h8.384v-8.335h-8.459L34.621 25.018z" fill="#ffffff" data-fill-palette-color="accent"></path></svg></g></svg></g></svg></g></svg></g></svg></g><path d="M146.641 49.719L146.641 4.661 384.52 4.661 384.52 242.539 146.641 242.539 146.641 197.481 158.884 197.481 158.884 230.296 372.276 230.296 372.276 16.904 158.884 16.904 158.884 49.719Z" fill="#ffffff" stroke="transparent" data-fill-palette-color="primary"></path></svg></g><defs></defs></svg><rect width="395.52" height="247.2" fill="none" stroke="none" visibility="hidden"></rect></g></svg></g></svg>